# xmcd
#
# Track frame offsets:
#	150
#	50332
#	90075
#	151418
#	207997
#	256269
#	277927
#	316500
#
# Disc length: 4597 seconds
#
# Revision: 0
# Processed by: cddbd v1.5.2PL0 Copyright (c) Steve Scherf et al.
# Submitted via: dBpowerAMP V4.0
#
DISCID=5711f308
DTITLE=C.S. Forester - African Queen
DYEAR=2007
DGENRE=Lesung
TTITLE0=CD1 01 Die Missionsstation
TTITLE1=CD1 02 Aufbruch
TTITLE2=CD1 03 Roses verpasste Chancen
TTITLE3=CD1 04 Groﬂe Pl‰ne
TTITLE4=CD1 05 Der erste Tag auf dem Fluﬂ
TTITLE5=CD1 06 Ein Bad
TTITLE6=CD1 07 Unwetter
TTITLE7=CD1 08 Rose am Ruder
EXTD=
EXTT0=
EXTT1=
EXTT2=
EXTT3=
EXTT4=
EXTT5=
EXTT6=
EXTT7=
PLAYORDER=
